HIERARCHY
ROOT hip
{
  OFFSET 0 0 0
  CHANNELS 6 Xposition Yposition Zposition Zrotation Yrotation Xrotation
  JOINT abdomen
  {
    OFFSET 0 20.6881 -0.73152
    CHANNELS 3 Zrotation Xrotation Yrotation
    JOINT chest
    {
      OFFSET 0 11.7043 -0.48768
      CHANNELS 3 Zrotation Xrotation Yrotation
      JOINT neck
      {
        OFFSET 0 22.1894 -2.19456
        CHANNELS 3 Zrotation Xrotation Yrotation
        JOINT head
        {
          OFFSET -0.24384 7.07133 1.2192
          CHANNELS 3 Zrotation Xrotation Yrotation
          JOINT leftEye
          {
            OFFSET 4.14528 8.04674 8.04672
            CHANNELS 3 Zrotation Xrotation Yrotation
            End Site
            {
              OFFSET 1 0 0
            }
          }
          JOINT rightEye
          {
            OFFSET -3.6576 8.04674 8.04672
            CHANNELS 3 Zrotation Xrotation Yrotation
            End Site
            {
              OFFSET 1 0 0
            }
          }
        }
      }
      JOINT rCollar
      {
        OFFSET -2.68224 19.2634 -4.8768
        CHANNELS 3 Zrotation Xrotation Yrotation
        JOINT rShldr
        {
          OFFSET -8.77824 -1.95073 1.46304
          CHANNELS 3 Zrotation Xrotation Yrotation
          JOINT rForeArm
          {
            OFFSET -28.1742 -1.7115 0.48768
            CHANNELS 3 Zrotation Xrotation Yrotation
            JOINT rHand
            {
              OFFSET -22.5879 0.773209 7.07136
              CHANNELS 3 Zrotation Xrotation Yrotation
              JOINT rThumb1
              {
                OFFSET -1.2192 -0.487915 3.41376
                CHANNELS 3 Zrotation Xrotation Yrotation
                JOINT rThumb2
                {
                  OFFSET -3.37035 -0.52449 3.41376
                  CHANNELS 3 Zrotation Xrotation Yrotation
                  End Site
                  {
                    OFFSET -1.78271 -1.18214 1.43049
                  }
                }
              }
              JOINT rIndex1
              {
                OFFSET -7.75947 0.938293 5.60832
                CHANNELS 3 Zrotation Xrotation Yrotation
                JOINT rIndex2
                {
                  OFFSET -2.54057 -0.884171 1.56538
                  CHANNELS 3 Zrotation Xrotation Yrotation
                  End Site
                  {
                    OFFSET -1.62519 -0.234802 1.16502
                  }
                }
              }
              JOINT rMid1
              {
                OFFSET -8.24714 1.18213 3.41376
                CHANNELS 3 Zrotation Xrotation Yrotation
                JOINT rMid2
                {
                  OFFSET -3.10165 -0.590103 1.0647
                  CHANNELS 3 Zrotation Xrotation Yrotation
                  End Site
                  {
                    OFFSET -2.48547 -0.328903 0.83742
                  }
                }
              }
              JOINT rRing1
              {
                OFFSET -8.82822 0.546677 1.51678
                CHANNELS 3 Zrotation Xrotation Yrotation
                JOINT rRing2
                {
                  OFFSET -2.60934 -0.819778 -0.0198488
                  CHANNELS 3 Zrotation Xrotation Yrotation
                  End Site
                  {
                    OFFSET -2.33842 -0.294052 0.168128
                  }
                }
              }
              JOINT rPinky1
              {
                OFFSET -8.27202 -0.0477905 -0.4584
                CHANNELS 3 Zrotation Xrotation Yrotation
                JOINT rPinky2
                {
                  OFFSET -1.82734 -0.647385 -0.700984
                  CHANNELS 3 Zrotation Xrotation Yrotation
                  End Site
                  {
                    OFFSET -1.69225 -0.51767 -0.607171
                  }
                }
              }
            }
          }
        }
      }
      JOINT lCollar
      {
        OFFSET 2.68224 19.2634 -4.8768
        CHANNELS 3 Zrotation Xrotation Yrotation
        JOINT lShldr
        {
          OFFSET 8.77824 -1.95073 1.46304
          CHANNELS 3 Zrotation Xrotation Yrotation
          JOINT lForeArm
          {
            OFFSET 28.1742 -1.7115 0.48768
            CHANNELS 3 Zrotation Xrotation Yrotation
            JOINT lHand
            {
              OFFSET 22.5879 0.773209 7.07136
              CHANNELS 3 Zrotation Xrotation Yrotation
              JOINT lThumb1
              {
                OFFSET 1.2192 -0.487915 3.41376
                CHANNELS 3 Zrotation Xrotation Yrotation
                JOINT lThumb2
                {
                  OFFSET 3.37035 -0.52449 3.41376
                  CHANNELS 3 Zrotation Xrotation Yrotation
                  End Site
                  {
                    OFFSET 1.78271 -1.18214 1.43049
                  }
                }
              }
              JOINT lIndex1
              {
                OFFSET 7.75947 0.938293 5.60832
                CHANNELS 3 Zrotation Xrotation Yrotation
                JOINT lIndex2
                {
                  OFFSET 2.54057 -0.884171 1.56538
                  CHANNELS 3 Zrotation Xrotation Yrotation
                  End Site
                  {
                    OFFSET 1.62519 -0.234802 1.16502
                  }
                }
              }
              JOINT lMid1
              {
                OFFSET 8.24714 1.18213 3.41376
                CHANNELS 3 Zrotation Xrotation Yrotation
                JOINT lMid2
                {
                  OFFSET 3.10165 -0.590103 1.0647
                  CHANNELS 3 Zrotation Xrotation Yrotation
                  End Site
                  {
                    OFFSET 2.48547 -0.328903 0.83742
                  }
                }
              }
              JOINT lRing1
              {
                OFFSET 8.82822 0.546677 1.51678
                CHANNELS 3 Zrotation Xrotation Yrotation
                JOINT lRing2
                {
                  OFFSET 2.60934 -0.819778 -0.0198488
                  CHANNELS 3 Zrotation Xrotation Yrotation
                  End Site
                  {
                    OFFSET 2.33842 -0.294052 0.168128
                  }
                }
              }
              JOINT lPinky1
              {
                OFFSET 8.27202 -0.0477905 -0.4584
                CHANNELS 3 Zrotation Xrotation Yrotation
                JOINT lPinky2
                {
                  OFFSET 1.82734 -0.647385 -0.700984
                  CHANNELS 3 Zrotation Xrotation Yrotation
                  End Site
                  {
                    OFFSET 1.69225 -0.51767 -0.607171
                  }
                }
              }
            }
          }
        }
      }
    }
  }
  JOINT rButtock
  {
    OFFSET -8.77824 4.35084 1.2192
    CHANNELS 3 Zrotation Xrotation Yrotation
    JOINT rThigh
    {
      OFFSET 0 -1.70687 -2.19456
      CHANNELS 3 Zrotation Xrotation Yrotation
      JOINT rShin
      {
        OFFSET 0 -36.8199 0.73152
        CHANNELS 3 Zrotation Xrotation Yrotation
        JOINT rFoot
        {
          OFFSET 0.73152 -45.1104 -5.12064
          CHANNELS 3 Zrotation Xrotation Yrotation
          End Site
          {
            OFFSET -1.1221 -3.69964 12.103
          }
        }
      }
    }
  }
  JOINT lButtock
  {
    OFFSET 8.77824 4.35084 1.2192
    CHANNELS 3 Zrotation Xrotation Yrotation
    JOINT lThigh
    {
      OFFSET 0 -1.70687 -2.19456
      CHANNELS 3 Zrotation Xrotation Yrotation
      JOINT lShin
      {
        OFFSET 0 -36.8199 0.73152
        CHANNELS 3 Zrotation Xrotation Yrotation
        JOINT lFoot
        {
          OFFSET -0.73152 -45.1104 -5.12064
          CHANNELS 3 Zrotation Xrotation Yrotation
          End Site
          {
            OFFSET 1.1221 -3.69964 12.103
          }
        }
      }
    }
  }
}
MOTION
Frames:	7
Frame Time:	0.03333
49.1653 84.3569 -12.961900000000002 48.395896 27.050978 26.991041 -30.588986 23.118961 -180.0 2.715574 9.486653 -158.634037 3.113496 12.996773 43.492575 -26.08066 -7.0322 -23.086319 -0.005161 0.0 -0.003709 -0.004935 -0.0 0.001984 -3.767817 17.921089 4.640542 43.836045 -26.568352 32.006974 176.192605 -14.440598 66.757297 161.620528 -28.560978 142.046286 -68.482202 37.954252 35.659546 -129.057564 -23.398161 84.600735 11.981614 -21.346719 -5.062858 -64.263805 49.133638 51.360596 -158.522744 -0.192533 142.143294 -7.222283 25.621365 6.271461 -0.014998 -1.323052 -0.416518 9.341792 12.723121 1.661125 -164.418394 75.861049 -150.196984 -41.975177 -48.869273 -41.562076 80.165833 68.371635 -83.260956 5.987932 21.803605 -56.318794 -159.95832 -16.663344 121.351702 16.226273 16.222 -0.705898 99.394341 37.100928 -57.492085 126.321637 -15.965685 -74.139624 155.194109 -24.299929 -122.142479 -13.166796 -2.443905 10.173416 82.84072 61.110744 -74.532237 7.208374 26.187027 -6.238714 -0.000206 -0.018533 0.005683 156.290666 -18.28062 -174.001803 82.835538 -50.991333 81.238786 84.404677 -52.909468 84.865251 -0.000145 -5e-06 0.000187 -44.126088 -15.719402 -15.751575 2.811737 26.80376 21.857565 -27.339918 19.625315 -20.936677 179.996799 75.749647 0.00219 -125.685988 6.68061 -7.646736 27.112592 19.401576 22.052877 -29.616724 14.190462 -27.174856
51.2003 85.5562 -12.847700000000001 48.879228 25.566569 27.855651 -32.494473 26.534967 14.574955 -5.631966 -13.461717 5.475514 -8.670317 28.786638 -129.761082 32.939774 20.596735 145.672732 -0.002039 -0.0 0.001687 0.00369 0.0 0.001634 -158.417808 -29.366567 166.793012 135.95864 71.54219 -134.472011 -0.998614 53.06076 80.469366 -8.431848 36.537045 2.811183 6.464109 -6.452488 -0.634968 2.041392 -5.442332 -6.293481 -14.22708 19.20383 9.559869 5.829888 4.854853 0.058658 -0.396397 1.151848 0.222847 1.00766 6.424886 0.951657 -70.640843 72.966173 88.425115 5.669454 15.805198 -2.414568 44.711655 86.378983 -5.345369 -25.886524 -40.63971 -25.905851 6.042595 25.599206 -7.23393 -110.848912 -76.732596 -53.860599 12.343726 25.336554 -72.999897 4.925925 -15.117261 3.996858 94.518776 37.865382 -54.092626 153.647353 -29.656542 -79.369568 162.917971 -37.929598 -122.629651 10.625683 36.694298 -3.699292 36.034396 51.7239 -29.831191 171.965704 -31.376619 -143.991158 70.378571 -72.129878 87.280177 -14.090798 26.366357 1.00455 138.44412 -6.229748 135.658668 77.692868 -52.870477 77.633754 -0.001721 0.000707 -0.000861 -44.874428 -12.513535 -13.255054 0.472291 31.036246 -155.380021 -28.7771 45.639301 134.829858 179.999333 75.74804 0.000688 -120.019065 8.74685 -12.861811 6.486168 5.530075 -39.353519 89.061037 20.468779 -24.175156
53.0583 86.5675 -13.1949 50.286511 24.384448 29.056454 -29.434538 23.486683 -77.218353 11.631632 -7.177794 95.989718 8.827629 17.803891 86.365505 -27.931813 20.111764 -60.566913 0.005143 -0.0 -0.000745 -0.000513 0.0 -0.001593 -82.877453 68.30046 86.000604 -170.095519 22.604416 143.327915 102.21161 3.372461 -38.97826 -163.867539 56.486829 140.314107 -89.136006 38.426828 50.299205 9.805548 -21.790177 23.635513 -100.823985 37.734088 85.162252 -66.767626 53.468574 46.205704 -15.316716 32.809615 11.206684 -170.180779 -26.273136 144.262339 -31.706629 -66.109197 -46.282692 14.550495 0.559358 -3.264779 -144.259485 9.238434 -141.008537 -22.72799 -38.006196 -24.27335 48.790504 -86.43474 70.452974 5.046287 2.740475 35.609296 -13.482312 50.052973 -59.073417 11.05407 7.329784 1.541672 166.63181 -4.304834 -89.770676 86.336554 6.801646 -32.858373 127.854373 18.703142 -107.50634 -0.681834 12.733075 5.768721 145.289236 29.524401 -132.691892 42.352382 58.31895 -36.571507 145.115087 -0.35698 179.017602 -11.838316 26.177552 6.013658 152.875489 39.991878 148.058677 -7.869504 17.090075 -2.48278 179.998516 75.748664 0.001015 116.076578 39.699567 -35.526118 -10.271749 1.501411 91.324544 21.685704 -15.123345 -40.777077 -179.910576 75.751214 -0.068925 -117.24368 6.725117 -10.67182 6.435692 10.29622 145.069163 101.828567 49.549406 173.640227
54.4349 86.862 -13.833100000000002 51.282867 23.621257 29.819761 -32.288256 24.427391 13.315531 -4.685871 -13.880244 3.552717 7.653119 13.953538 65.255078 -29.188898 10.917309 -40.999822 -0.000332 -0.0 0.000346 -0.000332 -0.0 0.000346 1.988905 -14.037371 -2.878184 49.326167 -29.902078 21.161403 58.158318 46.331368 38.223225 -36.218791 68.628506 22.269604 -5.175723 5.019974 1.01564 -122.649429 -16.890058 108.952201 -151.353014 -17.158105 121.133929 -85.836258 56.810253 67.522796 -169.089618 -33.247367 145.375067 -13.716855 36.279553 11.05456 -145.099931 -1.521695 -178.650259 12.25839 44.697021 -3.861783 -109.124098 -42.334402 -107.214089 -22.942471 -39.578042 -25.072644 -2.459659 -18.216302 3.669894 118.246065 -14.778868 159.986063 170.836015 45.041482 117.503452 7.939788 -4.616784 3.134256 7.35189 7.062026 -1.569896 155.248374 -62.405646 -113.120641 -7.370733 -12.802335 3.565819 -87.841884 -60.270735 -35.101768 36.034628 51.723462 -29.832233 1.162946 12.655756 -2.268507 0.019063 -1.725093 0.542937 -7.051988 29.717138 -4.674631 145.500421 13.104158 142.109722 10.073652 -24.004503 12.503159 -179.999899 75.750595 -0.000104 112.366458 39.896951 0.0 -14.088297 3.946989 -53.301815 -4.261216 -16.790636 82.478501 179.994916 75.748666 0.003478 -119.123589 2.668163 83.326718 9.597147 0.713518 142.870875 145.483124 -4.321006 -134.765694
56.720099999999995 86.7521 -14.8166 51.152254 22.548806 29.92837 -28.514797 22.372923 -75.001383 10.726859 -7.630076 91.065157 -10.372628 23.097681 -97.671097 31.921359 -1.129738 119.771005 -0.001887 0.0 -0.001622 0.003777 -0.0 -0.000417 3.268637 -26.755858 -5.241489 -122.229591 36.597016 157.693158 -6.268682 71.924985 -108.050697 159.427498 -34.432064 139.767545 -10.481068 9.910792 2.492493 44.821045 -56.489752 -9.790052 -27.171626 30.469121 19.889771 68.956689 -57.623289 24.185841 5.58982 -17.377456 -2.452431 17.87991 -42.126256 -0.157907 -0.000524 0.022722 0.006622 8.570858 18.551885 2.581257 -124.850625 -29.037678 -122.620656 -145.8116 8.921933 -141.372595 0.273371 1.606737 -0.361432 113.060122 -14.193519 174.469543 -21.266135 -62.299103 88.649728 169.24657 8.887575 -140.482201 3.03126 2.963655 -0.542793 127.70305 -23.953256 -112.708507 148.885495 -12.609521 -120.24574 9.101378 32.466403 -0.603385 39.290255 53.365607 -32.878381 159.287245 6.368918 -141.711815 31.710558 -66.108152 46.285704 73.03353 82.052453 -90.670016 -8.446583 26.701238 -7.423138 159.461885 53.206059 149.763526 -0.000194 -0.001957 0.00025 -49.298984 -7.569944 87.130238 7.080335 2.470196 -152.363299 -39.071568 -12.724053 32.15915 0.000716 -0.000761 -0.000921 84.142558 -29.374032 -0.0 -8.960792 19.283812 148.3307 -2.423162 -10.248095 -87.73766
59.3192 86.253 -15.715699999999998 50.08691 19.704935 30.08984 -28.51889 22.900632 0.0 -3.148461 -13.329893 15.625891 1.46554 9.532961 18.871844 -22.481978 -10.37446 1.553708 -0.000484 0.0 -0.000134 -0.000838 0.0 -0.004357 -159.221717 -48.028772 170.413615 46.033663 63.654023 -40.50775 -127.095073 -61.669148 105.461663 144.970785 -52.183594 128.023357 -176.599212 -14.21287 89.689929 -118.068658 16.229835 55.341213 -166.823019 -43.973796 122.060257 1.304097 22.611702 -3.835544 -8.418123 20.879967 5.646478 -129.195795 52.097716 118.503288 0.000697 -0.060757 -0.019718 9.712551 -62.549477 -9.182412 5.420237 16.065185 4.880625 -85.432993 -53.886853 -84.642906 155.460053 -3.227678 -161.777892 -122.379437 -47.292445 -155.137802 175.171506 -70.4943 107.176686 9.186536 -11.909134 4.304757 175.199336 -12.84564 -89.807537 7.19997 -51.765811 -3.567064 27.422313 30.638489 -20.099814 11.974639 24.9639 -6.775529 0.398202 1.151526 -0.223096 42.063526 58.559976 -36.101698 -0.000393 -0.018815 0.003853 -10.323094 0.112471 0.054723 112.781688 -40.024377 110.811503 77.250915 -53.353515 77.761576 -0.000318 0.00054 0.000409 -48.245253 -9.980501 -116.811252 -15.591967 -1.238881 -95.101289 73.338973 -2.046738 -173.242345 179.999099 75.751704 0.000616 -123.438026 -10.56336 83.097718 27.806792 -10.555334 -134.113497 4.974109 5.255943 43.076766
61.219500000000004 85.6252 -16.1179 47.669934 16.401962 29.309423 -21.91248 17.525662 -113.22988 11.06003 -2.728257 130.297877 -2.260698 9.645506 -3.601463 -12.908744 -16.590985 24.766111 0.003739 0.0 0.001009 -0.001249 0.0 -0.000579 -142.974223 39.431653 147.390011 85.666906 -82.801852 101.37534 25.49519 -36.37587 101.941178 -17.901145 53.673294 7.661434 -68.48212 37.954287 35.659593 80.23398 -51.592293 27.082438 10.211283 -18.050651 -4.565219 55.973093 -48.693372 10.851232 -89.834822 60.7022 81.263073 -47.375115 60.141507 41.308412 -0.000666 -0.018553 -0.005536 8.575827 18.552021 2.57649 -101.240097 -46.192871 -99.437036 -167.657557 69.794016 -145.563977 13.947403 42.750368 -15.784552 73.098547 42.739175 -130.789434 -77.813033 -7.226674 88.203974 112.724683 60.766251 -90.006274 1.510105 1.482748 -0.251387 122.756866 -15.046032 -109.940032 83.732136 42.330954 -69.990293 2.550332 13.570554 1.883991 141.108265 35.601053 -129.174308 -2.96204 1.193008 -0.458473 70.378169 -72.13145 87.279183 150.980513 0.128587 -176.281397 -17.607329 61.627466 -12.865135 153.483291 29.182354 146.535831 -0.0 -0.001161 -0.000312 -48.989055 -13.655669 -113.681286 -16.674558 -5.52221 -55.930248 101.814191 -40.259828 -155.973596 -179.984753 75.749789 -0.010432 -121.183093 -21.708319 32.922574 46.500323 24.601718 -67.853639 42.438413 4.52041 -3.742789
